<svg width="22" height="22" viewBox="0 0 22 22" fill="none" xmlns="http://www.w3.org/2000/svg">
<path d="M19.3868 6.17495C18.1399 4.27189 16.1876 3.07213 14.0929 2.73427C14.1143 2.58947 14.0929 2.43088 14.0145 2.29297C13.8649 2.03096 13.5585 1.88616 13.245 1.94822L8.92013 2.81011L8.32163 1.03116C8.23613 0.776039 8.001 0.58987 7.72313 0.562289C7.44525 0.534709 7.1745 0.665717 7.032 0.900152L5.74238 3.03076C4.866 2.38261 3.79013 1.94132 2.7 1.94132C2.30813 1.94132 1.9875 2.2516 1.9875 2.63084C1.9875 3.01007 2.30813 3.32035 2.7 3.32035C3.5265 3.32035 4.353 3.70648 5.0085 4.22362L0.883129 6.88515C0.619504 7.05064 0.505504 7.36781 0.598129 7.65741C0.683629 7.94701 0.961504 8.14697 1.275 8.14697H3.17738L2.00888 12.0979C1.92338 12.4013 2.05163 12.7185 2.3295 12.877C2.4435 12.946 2.57175 12.9667 2.7 12.9667C2.71425 15.2214 3.74738 17.4072 5.64975 18.8138C8.46413 20.8892 12.561 21.9442 17.8335 21.9442C18.033 21.9442 18.2325 21.9442 18.432 21.9373C20.085 21.9097 21.4886 20.6893 21.6953 19.0965C22.3721 13.8906 21.5955 9.54668 19.3868 6.17495ZM20.2845 18.9241C20.1634 19.8412 19.3654 20.5445 18.4178 20.5583C13.1809 20.6341 9.17663 19.6826 6.519 17.7175C4.65225 16.3384 3.81863 14.0285 4.23188 11.8083L5.25788 10.8499C4.31738 13.1253 4.99425 15.7247 6.95363 17.1727C9.38325 18.9655 13.0455 19.8756 17.8335 19.8756C18.0259 19.8756 18.2183 19.8756 18.4178 19.8687C18.8096 19.8618 19.1231 19.5447 19.116 19.1654C19.1089 18.7862 18.7883 18.4897 18.4035 18.4897C18.3964 18.4897 18.3964 18.4897 18.3893 18.4897C13.6511 18.5725 10.0886 17.745 7.82288 16.0764C6.29813 14.9525 5.82788 12.8495 6.71138 11.0843L8.55675 13.4011C8.685 13.5666 8.89875 13.6631 9.1125 13.6631C9.19088 13.6631 9.26925 13.6493 9.3405 13.6286C9.63263 13.5321 9.825 13.2701 9.825 12.9736V8.06422L14.898 7.45056C15.2186 7.40918 15.4751 7.16785 15.5179 6.85757C15.5606 6.54729 15.3825 6.2508 15.0833 6.12668L12.0765 4.93382L12.9885 4.01677C15.0191 4.05124 16.9928 5.08551 18.1826 6.90584C20.2061 10.0087 20.9186 14.0492 20.2845 18.9241ZM5.94188 5.27168C5.95613 5.26479 5.95613 5.25789 5.96325 5.251C6.15563 5.54749 6.2625 5.83709 6.2625 6.07842C6.2625 6.45765 6.58313 6.76793 6.975 6.76793C7.36688 6.76793 7.6875 6.45765 7.6875 6.07842C7.6875 5.42338 7.3455 4.6856 6.78975 4.01677L7.45238 2.92043L7.75875 3.8306C7.87275 4.16846 8.229 4.36152 8.57813 4.29257L11.2643 3.75475L10.3095 4.71318C10.1456 4.87866 10.0744 5.1131 10.1243 5.33374C10.1741 5.55439 10.3309 5.74056 10.5518 5.83019L12.0195 6.40939L9.01988 6.77483C8.67075 6.8162 8.4 7.11269 8.4 7.45745V10.9464L6.61875 8.70547C6.49763 8.54689 6.30525 8.45035 6.10575 8.43656C6.0915 8.43656 6.07013 8.43656 6.05588 8.43656C5.87063 8.43656 5.6925 8.50551 5.55713 8.62963L4.11788 9.98108L4.809 7.63672C4.87313 7.43677 4.83038 7.21612 4.695 7.04374C4.55963 6.87136 4.34588 6.76793 4.125 6.76793H3.62625L5.94188 5.27168Z" fill="#359740"/>
</svg>
